<?xml version="1.0" encoding="utf-8"?><svg viewBox="0 0 822 1024" xmlns="http://www.w3.org/2000/svg" xmlns:xlink="http://www.w3.org/1999/xlink"><style>:root>svg{display:none}:root>svg:target{display:block}</style><svg fill="#FFF" viewBox="0 0 822 1024" id="behance-icon" xmlns="http://www.w3.org/2000/svg"><path d="M323.584 490.496q0-34.816-29.696-48.128-7.168-5.12-18.432-6.144t-25.6-1.024h-98.304v119.808h96.256q30.72 0 46.08-8.192 29.696-13.312 29.696-56.32zM664.576 373.76q-22.528-16.384-50.176-16.384-33.792 0-51.2 18.432-16.384 19.456-22.528 50.176H686.08q-3.072-31.744-21.504-52.224zM266.24 182.272q81.92 0 117.76 48.128 20.48 28.672 20.48 67.584 0 43.008-22.528 66.56-5.12 8.192-13.312 14.336t-19.456 11.264q16.384 7.168 29.696 16.896t21.504 24.064q18.432 29.696 18.432 66.56t-20.48 71.68Q384 590.848 365.568 604.16q-10.24 8.192-23.04 13.824t-27.136 10.752q-14.336 2.048-30.208 3.584t-34.304 1.536H48.128V182.272H266.24zm232.448 149.504q43.008-44.032 115.712-44.032 40.96 0 75.776 14.336 16.384 8.192 30.208 19.456t25.088 28.672q9.216 15.36 15.872 31.744t9.728 35.84q2.048 11.264 3.072 27.136t1.024 36.352H538.624q0 24.576 9.216 41.472t24.576 26.112q17.408 13.312 46.08 13.312 26.624 0 47.104-15.36 11.264-7.168 17.408-21.504h86.016q-3.072 29.696-30.72 58.368-20.48 23.552-51.712 34.816t-70.144 11.264q-64.512 0-114.688-37.888-48.128-40.96-48.128-131.072 0-81.92 45.056-129.024zm203.776-131.072v46.08H522.24v-46.08h180.224zM295.936 348.16q18.432-10.24 18.432-38.912 0-30.72-24.576-41.984-11.264-3.072-23.552-5.12t-29.696-2.048h-84.992v99.328h96.256q15.36 0 26.624-3.072t21.504-8.192z"/></svg><svg fill="#FFF" viewBox="0 0 694 1024" id="dribbble-icon" xmlns="http://www.w3.org/2000/svg"><path d="M437.248 452.608q14.336 41.984 23.04 84.48t13.824 86.528q46.08-26.624 76.288-69.632t41.472-96.256q-23.552-5.12-45.568-8.192t-44.544-3.072q-32.768 0-64.512 6.144zM200.704 612.352q69.632 46.08 146.432 46.08 20.48 0 39.936-2.56t38.912-9.728q-4.096-47.104-13.312-92.672t-23.552-88.576q-58.368 20.48-105.984 57.856t-82.432 89.6zm220.16-207.872q20.48-4.096 40.96-6.656t39.936-2.56q23.552 0 47.104 3.584t48.128 9.728q0-37.888-11.776-73.216t-32.256-67.072q-70.656 59.392-149.504 95.232 5.12 10.24 8.704 20.48t8.704 20.48zm99.328-175.104q-34.816-32.768-79.36-51.2t-93.696-18.432q-32.768 0-64.512 9.216 58.368 72.704 99.328 148.48 72.704-31.744 138.24-88.064zm-184.32 106.496q-41.984-77.824-103.424-148.48-52.224 27.648-87.552 75.776T99.328 371.712h33.792q51.2 0 101.888-8.704t100.864-27.136zm11.264-226.304q62.464 0 116.736 23.552t95.232 64 64.512 95.232 23.552 116.224q0 62.464-23.552 117.248t-64.512 95.232-95.232 64-116.736 23.552T230.4 685.056t-94.72-64-64-95.232-23.552-117.248q0-61.44 23.552-116.224t64-95.232 94.72-64 116.736-23.552zm25.6 308.224q-5.12-8.192-8.704-17.92t-6.656-17.92q-55.296 20.48-111.104 30.72t-113.152 10.24q-8.192 0-16.896-1.024t-17.92-1.024q1.024 45.056 18.432 84.992t47.104 71.68q37.888-57.344 91.136-97.792t117.76-61.952z"/></svg><svg fill="#FFF" viewBox="0 0 431 1024" id="facebook-icon" xmlns="http://www.w3.org/2000/svg"><path d="M144.384 311.296v-59.392q0-32.768 11.264-61.44t30.72-49.664 45.568-33.28 55.808-12.288H384v117.76h-96.256q-8.192 0-15.872 10.752t-7.68 26.112v61.44H384v119.808H264.192V721.92H144.384V431.104H48.128V311.296h96.256z"/></svg><svg fill="#FFF" viewBox="0 0 427 1024" id="google-icon" xmlns="http://www.w3.org/2000/svg"><path d="M204.8 330.752q26.624 0 45.568-18.432t18.944-46.08q0-26.624-18.944-45.568T204.8 201.728t-45.568 18.944-18.944 45.568q0 27.648 18.944 46.08t45.568 18.432zm9.216 307.2q30.72 0 52.224-14.336t21.504-34.816-21.504-35.328-52.224-14.848-52.224 14.848-21.504 35.328 21.504 34.816 52.224 14.336zM103.424 432.128q0-32.768 13.312-59.392-23.552-19.456-37.888-46.592T64.512 266.24q0-28.672 10.752-53.76t29.184-44.032 43.52-29.696T200.704 128q20.48 0 37.888 6.144t34.816 17.408l99.328-55.296v92.16l-48.128 25.6q7.168 8.192 12.8 23.04t5.632 29.184q0 28.672-10.752 53.76t-29.696 44.032-44.032 29.696-53.76 10.752h-4.096q-2.048 0-3.584 10.24t-1.536 17.408q0 15.36 5.12 27.648h13.312q34.816 0 65.024 10.24t52.736 27.648 35.328 40.96 12.8 50.176-12.8 50.176-35.328 40.96-52.736 27.648-65.024 10.24-65.024-10.24-52.736-27.648-35.328-40.96-12.8-50.176q0-32.768 17.92-59.392t48.64-44.032q-11.264-25.6-11.264-53.248z"/></svg><svg fill="#FFF" viewBox="0 0 616 1024" id="linkedin-icon" xmlns="http://www.w3.org/2000/svg"><path d="M117.76 74.752q29.696 0 50.176 20.992t20.48 50.688-20.48 50.176-50.176 20.48-49.664-20.48-19.968-50.176 19.968-50.688 49.664-20.992zm227.328 184.32v18.432q32.768-16.384 73.728-14.336t73.728 18.432q34.816 19.456 55.808 56.32t20.992 75.776V655.36h-112.64V413.696q0-8.192-6.144-19.456t-13.312-13.312q-17.408-9.216-33.792-7.168t-29.696 8.192q-15.36 7.168-28.672 19.456V655.36H230.4V259.072h114.688zM60.416 655.36V259.072h114.688V655.36H60.416z"/></svg><svg fill="#FFF" viewBox="0 0 786 1024" id="twitter-icon" xmlns="http://www.w3.org/2000/svg"><path d="M724.992 222.208q-24.576 35.84-61.44 64.512v14.336q0 61.44-23.04 124.416t-67.584 113.664-109.568 82.432-150.016 31.744q-52.224 0-99.84-14.848t-89.6-41.472q7.168 1.024 14.336 1.024h15.36q88.064 0 152.576-52.224-40.96-1.024-72.192-25.088t-42.496-60.928q12.288 3.072 22.528 3.072 9.216 0 16.896-1.024t15.872-3.072q-43.008-9.216-71.168-42.496t-28.16-78.336v-1.024q12.288 6.144 26.112 10.24t31.232 4.096q-26.624-16.384-40.96-43.008t-14.336-59.392 16.384-62.464q46.08 57.344 111.616 91.648t142.336 37.376q-3.072-12.288-3.072-26.624 0-25.6 9.728-48.64t26.624-39.936 38.912-26.624 47.616-9.728q27.648 0 50.176 10.752t39.936 28.16q20.48-3.072 40.96-11.264t37.888-17.408q-16.384 43.008-54.272 67.584 19.456-2.048 36.864-7.168t33.792-12.288z"/></svg></svg>