<!-- Generated by IcoMoon.io -->
<svg version="1.1" xmlns="http://www.w3.org/2000/svg" width="822" height="1024" viewBox="0 0 822 1024" fill="#FFFFFF">
<title></title>
<g id="icomoon-ignore">
</g>
<path d="M323.584 490.496q0-34.816-29.696-48.128-7.168-5.12-18.432-6.144t-25.6-1.024h-98.304v119.808h96.256q30.72 0 46.080-8.192 29.696-13.312 29.696-56.32zM664.576 373.76q-22.528-16.384-50.176-16.384-33.792 0-51.2 18.432-16.384 19.456-22.528 50.176h145.408q-3.072-31.744-21.504-52.224zM266.24 182.272q81.92 0 117.76 48.128 20.48 28.672 20.48 67.584 0 43.008-22.528 66.56-5.12 8.192-13.312 14.336t-19.456 11.264q16.384 7.168 29.696 16.896t21.504 24.064q18.432 29.696 18.432 66.56t-20.48 71.68q-14.336 21.504-32.768 34.816-10.24 8.192-23.040 13.824t-27.136 10.752q-14.336 2.048-30.208 3.584t-34.304 1.536h-202.752v-451.584h218.112zM498.688 331.776q43.008-44.032 115.712-44.032 40.96 0 75.776 14.336 16.384 8.192 30.208 19.456t25.088 28.672q9.216 15.36 15.872 31.744t9.728 35.84q2.048 11.264 3.072 27.136t1.024 36.352h-236.544q0 24.576 9.216 41.472t24.576 26.112q17.408 13.312 46.080 13.312 26.624 0 47.104-15.36 11.264-7.168 17.408-21.504h86.016q-3.072 29.696-30.72 58.368-20.48 23.552-51.712 34.816t-70.144 11.264q-64.512 0-114.688-37.888-48.128-40.96-48.128-131.072 0-81.92 45.056-129.024zM702.464 200.704v46.080h-180.224v-46.080h180.224zM295.936 348.16q18.432-10.24 18.432-38.912 0-30.72-24.576-41.984-11.264-3.072-23.552-5.12t-29.696-2.048h-84.992v99.328h96.256q15.36 0 26.624-3.072t21.504-8.192z"></path>
</svg>
