<!-- Generated by IcoMoon.io -->
<svg version="1.1" xmlns="http://www.w3.org/2000/svg" width="694" height="1024" viewBox="0 0 694 1024" fill="#FFFFFF">
<title></title>
<g id="icomoon-ignore">
</g>
<path d="M437.248 452.608q14.336 41.984 23.040 84.48t13.824 86.528q46.080-26.624 76.288-69.632t41.472-96.256q-23.552-5.12-45.568-8.192t-44.544-3.072q-32.768 0-64.512 6.144zM200.704 612.352q69.632 46.080 146.432 46.080 20.48 0 39.936-2.56t38.912-9.728q-4.096-47.104-13.312-92.672t-23.552-88.576q-58.368 20.48-105.984 57.856t-82.432 89.6zM420.864 404.48q20.48-4.096 40.96-6.656t39.936-2.56q23.552 0 47.104 3.584t48.128 9.728q0-37.888-11.776-73.216t-32.256-67.072q-70.656 59.392-149.504 95.232 5.12 10.24 8.704 20.48t8.704 20.48zM520.192 229.376q-34.816-32.768-79.36-51.2t-93.696-18.432q-32.768 0-64.512 9.216 58.368 72.704 99.328 148.48 72.704-31.744 138.24-88.064zM335.872 335.872q-41.984-77.824-103.424-148.48-52.224 27.648-87.552 75.776t-45.568 108.544h33.792q51.2 0 101.888-8.704t100.864-27.136zM347.136 109.568q62.464 0 116.736 23.552t95.232 64 64.512 95.232 23.552 116.224q0 62.464-23.552 117.248t-64.512 95.232-95.232 64-116.736 23.552-116.736-23.552-94.72-64-64-95.232-23.552-117.248q0-61.44 23.552-116.224t64-95.232 94.72-64 116.736-23.552zM372.736 417.792q-5.12-8.192-8.704-17.92t-6.656-17.92q-55.296 20.48-111.104 30.72t-113.152 10.24q-8.192 0-16.896-1.024t-17.92-1.024q1.024 45.056 18.432 84.992t47.104 71.68q37.888-57.344 91.136-97.792t117.76-61.952z"></path>
</svg>
