<!-- Generated by IcoMoon.io -->
<svg version="1.1" xmlns="http://www.w3.org/2000/svg" width="427" height="1024" viewBox="0 0 427 1024" fill="#FFFFFF">
<title></title>
<g id="icomoon-ignore">
</g>
<path d="M204.8 330.752q26.624 0 45.568-18.432t18.944-46.080q0-26.624-18.944-45.568t-45.568-18.944-45.568 18.944-18.944 45.568q0 27.648 18.944 46.080t45.568 18.432zM214.016 637.952q30.72 0 52.224-14.336t21.504-34.816-21.504-35.328-52.224-14.848-52.224 14.848-21.504 35.328 21.504 34.816 52.224 14.336zM103.424 432.128q0-32.768 13.312-59.392-23.552-19.456-37.888-46.592t-14.336-59.904q0-28.672 10.752-53.76t29.184-44.032 43.52-29.696 52.736-10.752q20.48 0 37.888 6.144t34.816 17.408l99.328-55.296v92.16l-48.128 25.6q7.168 8.192 12.8 23.040t5.632 29.184q0 28.672-10.752 53.76t-29.696 44.032-44.032 29.696-53.76 10.752h-4.096q-2.048 0-3.584 10.24t-1.536 17.408q0 15.36 5.12 27.648h13.312q34.816 0 65.024 10.24t52.736 27.648 35.328 40.96 12.8 50.176-12.8 50.176-35.328 40.96-52.736 27.648-65.024 10.24-65.024-10.24-52.736-27.648-35.328-40.96-12.8-50.176q0-32.768 17.92-59.392t48.64-44.032q-11.264-25.6-11.264-53.248z"></path>
</svg>
