<!-- Generated by IcoMoon.io -->
<svg version="1.1" xmlns="http://www.w3.org/2000/svg" width="616" height="1024" viewBox="0 0 616 1024" fill="#FFFFFF">
<title></title>
<g id="icomoon-ignore">
</g>
<path d="M117.76 74.752q29.696 0 50.176 20.992t20.48 50.688-20.48 50.176-50.176 20.48-49.664-20.48-19.968-50.176 19.968-50.688 49.664-20.992zM345.088 259.072v18.432q32.768-16.384 73.728-14.336t73.728 18.432q34.816 19.456 55.808 56.32t20.992 75.776v241.664h-112.64v-241.664q0-8.192-6.144-19.456t-13.312-13.312q-17.408-9.216-33.792-7.168t-29.696 8.192q-15.36 7.168-28.672 19.456v253.952h-114.688v-396.288h114.688zM60.416 655.36v-396.288h114.688v396.288h-114.688z"></path>
</svg>
