<!-- Generated by IcoMoon.io -->
<svg version="1.1" xmlns="http://www.w3.org/2000/svg" width="786" height="1024" viewBox="0 0 786 1024" fill="#FFFFFF">
<title></title>
<g id="icomoon-ignore">
</g>
<path d="M724.992 222.208q-24.576 35.84-61.44 64.512v14.336q0 61.44-23.040 124.416t-67.584 113.664-109.568 82.432-150.016 31.744q-52.224 0-99.84-14.848t-89.6-41.472q7.168 1.024 14.336 1.024h15.36q88.064 0 152.576-52.224-40.96-1.024-72.192-25.088t-42.496-60.928q12.288 3.072 22.528 3.072 9.216 0 16.896-1.024t15.872-3.072q-43.008-9.216-71.168-42.496t-28.16-78.336v-1.024q12.288 6.144 26.112 10.24t31.232 4.096q-26.624-16.384-40.96-43.008t-14.336-59.392 16.384-62.464q46.080 57.344 111.616 91.648t142.336 37.376q-3.072-12.288-3.072-26.624 0-25.6 9.728-48.64t26.624-39.936 38.912-26.624 47.616-9.728q27.648 0 50.176 10.752t39.936 28.16q20.48-3.072 40.96-11.264t37.888-17.408q-16.384 43.008-54.272 67.584 19.456-2.048 36.864-7.168t33.792-12.288z"></path>
</svg>
